<svg width="868" height="992" viewBox="0 0 868 992" fill="none" xmlns="http://www.w3.org/2000/svg">
<path d="M371.779 0C303.619 0 247.853 55.7668 247.853 123.926H123.926C55.7668 123.926 0 179.693 0 247.853H867.484C867.484 179.693 811.717 123.926 743.558 123.926H619.631C619.631 55.7668 563.865 0 495.705 0H371.779ZM123.926 371.779V967.864C123.926 981.496 133.84 991.41 147.472 991.41H721.251C734.883 991.41 744.797 981.496 744.797 967.864V371.779H620.871V805.521C620.871 840.22 593.607 867.484 558.908 867.484C524.208 867.484 496.944 840.22 496.944 805.521V371.779H373.018V805.521C373.018 840.22 345.754 867.484 311.055 867.484C276.356 867.484 249.092 840.22 249.092 805.521V371.779H125.166H123.926Z" fill="black"/>
</svg>
